HIERARCHY
ROOT mixamorig:Hips
{
	OFFSET -0.000008 104.274872 1.554316
	CHANNELS 6 Xposition Yposition Zposition Xrotation Yrotation Zrotation
	JOINT mixamorig:Spine
	{
		OFFSET -0.000005 10.181595 0.131519
		CHANNELS 6 Xposition Yposition Zposition Xrotation Yrotation Zrotation
		JOINT mixamorig:Spine1
		{
			OFFSET -0.000000 9.893959 -1.470707
			CHANNELS 6 Xposition Yposition Zposition Xrotation Yrotation Zrotation
			JOINT mixamorig:Spine2
			{
				OFFSET -0.000000 9.220757 -1.370641
				CHANNELS 6 Xposition Yposition Zposition Xrotation Yrotation Zrotation
				JOINT mixamorig:Neck
				{
					OFFSET 0.000001 16.740417 -2.049036
					CHANNELS 6 Xposition Yposition Zposition Xrotation Yrotation Zrotation
					JOINT mixamorig:Head
					{
						OFFSET 0.000000 9.617874 1.685006
						CHANNELS 6 Xposition Yposition Zposition Xrotation Yrotation Zrotation
						JOINT mixamorig:HeadTop_End
						{
							OFFSET 0.000002 22.037354 7.501101
							CHANNELS 6 Xposition Yposition Zposition Xrotation Yrotation Zrotation
							End Site
							{
								OFFSET 0.000168 2310.654297 -282.823242
							}
						}
					}
				}
				JOINT mixamorig:RightShoulder
				{
					OFFSET -4.569970 11.014908 -2.160885
					CHANNELS 6 Xposition Yposition Zposition Xrotation Yrotation Zrotation
					JOINT mixamorig:RightArm
					{
						OFFSET -10.592851 -0.524811 -2.232101
						CHANNELS 6 Xposition Yposition Zposition Xrotation Yrotation Zrotation
						JOINT mixamorig:RightForeArm
						{
							OFFSET -27.841511 0.000031 -0.000004
							CHANNELS 6 Xposition Yposition Zposition Xrotation Yrotation Zrotation
							JOINT mixamorig:RightHand
							{
								OFFSET -28.328831 -0.000015 0.000015
								CHANNELS 6 Xposition Yposition Zposition Xrotation Yrotation Zrotation
								JOINT mixamorig:RightHandThumb1
								{
									OFFSET -2.464806 -1.573990 2.681852
									CHANNELS 6 Xposition Yposition Zposition Xrotation Yrotation Zrotation
									JOINT mixamorig:RightHandThumb2
									{
										OFFSET -3.215179 -1.872803 1.924282
										CHANNELS 6 Xposition Yposition Zposition Xrotation Yrotation Zrotation
										JOINT mixamorig:RightHandThumb3
										{
											OFFSET -2.654831 -1.527969 1.512609
											CHANNELS 6 Xposition Yposition Zposition Xrotation Yrotation Zrotation
											JOINT mixamorig:RightHandThumb4
											{
												OFFSET -2.018814 -1.152008 1.108052
												CHANNELS 6 Xposition Yposition Zposition Xrotation Yrotation Zrotation
												End Site
												{
													OFFSET -188.809540 -114.533607 132.431396
												}
											}
										}
									}
								}
								JOINT mixamorig:RightHandIndex1
								{
									OFFSET -9.108284 -0.517868 2.259835
									CHANNELS 6 Xposition Yposition Zposition Xrotation Yrotation Zrotation
									JOINT mixamorig:RightHandIndex2
									{
										OFFSET -3.699989 0.000000 0.001215
										CHANNELS 6 Xposition Yposition Zposition Xrotation Yrotation Zrotation
										JOINT mixamorig:RightHandIndex3
										{
											OFFSET -2.850006 0.000031 -0.000522
											CHANNELS 6 Xposition Yposition Zposition Xrotation Yrotation Zrotation
											JOINT mixamorig:RightHandIndex4
											{
												OFFSET -2.772186 -0.000015 -0.000020
												CHANNELS 6 Xposition Yposition Zposition Xrotation Yrotation Zrotation
												End Site
												{
													OFFSET -277.218445 0.000000 -0.050231
												}
											}
										}
									}
								}
								JOINT mixamorig:RightHandMiddle1
								{
									OFFSET -9.532516 -0.000031 -0.000023
									CHANNELS 6 Xposition Yposition Zposition Xrotation Yrotation Zrotation
									JOINT mixamorig:RightHandMiddle2
									{
										OFFSET -3.700005 -0.000015 0.003713
										CHANNELS 6 Xposition Yposition Zposition Xrotation Yrotation Zrotation
										JOINT mixamorig:RightHandMiddle3
										{
											OFFSET -2.949974 0.000015 -0.002054
											CHANNELS 6 Xposition Yposition Zposition Xrotation Yrotation Zrotation
											JOINT mixamorig:RightHandMiddle4
											{
												OFFSET -2.946640 0.000000 -0.000156
												CHANNELS 6 Xposition Yposition Zposition Xrotation Yrotation Zrotation
												End Site
												{
													OFFSET -294.664337 0.000000 -0.113670
												}
											}
										}
									}
								}
								JOINT mixamorig:RightHandRing1
								{
									OFFSET -9.103600 -0.043076 -1.865134
									CHANNELS 6 Xposition Yposition Zposition Xrotation Yrotation Zrotation
									JOINT mixamorig:RightHandRing2
									{
										OFFSET -3.379288 0.000000 -0.001055
										CHANNELS 6 Xposition Yposition Zposition Xrotation Yrotation Zrotation
										JOINT mixamorig:RightHandRing3
										{
											OFFSET -2.889687 -0.000015 0.000379
											CHANNELS 6 Xposition Yposition Zposition Xrotation Yrotation Zrotation
											JOINT mixamorig:RightHandRing4
											{
												OFFSET -2.638809 -0.000015 0.000941
												CHANNELS 6 Xposition Yposition Zposition Xrotation Yrotation Zrotation
												End Site
												{
													OFFSET -263.880371 0.000000 0.516020
												}
											}
										}
									}
								}
								JOINT mixamorig:RightHandPinky1
								{
									OFFSET -8.076683 -0.486710 -3.806280
									CHANNELS 6 Xposition Yposition Zposition Xrotation Yrotation Zrotation
									JOINT mixamorig:RightHandPinky2
									{
										OFFSET -3.600014 -0.000015 -0.003747
										CHANNELS 6 Xposition Yposition Zposition Xrotation Yrotation Zrotation
										JOINT mixamorig:RightHandPinky3
										{
											OFFSET -2.099983 0.000000 -0.005739
											CHANNELS 6 Xposition Yposition Zposition Xrotation Yrotation Zrotation
											JOINT mixamorig:RightHandPinky4
											{
												OFFSET -2.115768 -0.000031 -0.003680
												CHANNELS 6 Xposition Yposition Zposition Xrotation Yrotation Zrotation
												End Site
												{
													OFFSET -211.577087 0.000000 -0.350686
												}
											}
										}
									}
								}
							}
						}
					}
				}
				JOINT mixamorig:LeftShoulder
				{
					OFFSET 4.570447 11.014725 -2.160855
					CHANNELS 6 Xposition Yposition Zposition Xrotation Yrotation Zrotation
					JOINT mixamorig:LeftArm
					{
						OFFSET 10.592371 -0.524597 -2.232119
						CHANNELS 6 Xposition Yposition Zposition Xrotation Yrotation Zrotation
						JOINT mixamorig:LeftForeArm
						{
							OFFSET 27.841532 -0.000031 0.000026
							CHANNELS 6 Xposition Yposition Zposition Xrotation Yrotation Zrotation
							JOINT mixamorig:LeftHand
							{
								OFFSET 28.328846 -0.000061 0.000022
								CHANNELS 6 Xposition Yposition Zposition Xrotation Yrotation Zrotation
								JOINT mixamorig:LeftHandThumb1
								{
									OFFSET 2.466141 -1.576172 2.681732
									CHANNELS 6 Xposition Yposition Zposition Xrotation Yrotation Zrotation
									JOINT mixamorig:LeftHandThumb2
									{
										OFFSET 3.217812 -1.872070 1.916482
										CHANNELS 6 Xposition Yposition Zposition Xrotation Yrotation Zrotation
										JOINT mixamorig:LeftHandThumb3
										{
											OFFSET 2.656029 -1.528778 1.514513
											CHANNELS 6 Xposition Yposition Zposition Xrotation Yrotation Zrotation
											JOINT mixamorig:LeftHandThumb4
											{
												OFFSET 2.020889 -1.154053 1.115139
												CHANNELS 6 Xposition Yposition Zposition Xrotation Yrotation Zrotation
												End Site
												{
													OFFSET 190.885437 -115.081749 130.048782
												}
											}
										}
									}
								}
								JOINT mixamorig:LeftHandIndex1
								{
									OFFSET 9.109314 -0.518021 2.259871
									CHANNELS 6 Xposition Yposition Zposition Xrotation Yrotation Zrotation
									JOINT mixamorig:LeftHandIndex2
									{
										OFFSET 3.699989 0.000000 -0.000322
										CHANNELS 6 Xposition Yposition Zposition Xrotation Yrotation Zrotation
										JOINT mixamorig:LeftHandIndex3
										{
											OFFSET 2.850006 0.000000 0.000352
											CHANNELS 6 Xposition Yposition Zposition Xrotation Yrotation Zrotation
											JOINT mixamorig:LeftHandIndex4
											{
												OFFSET 2.774864 -0.000031 -0.000027
												CHANNELS 6 Xposition Yposition Zposition Xrotation Yrotation Zrotation
												End Site
												{
													OFFSET 277.486267 0.000000 -0.009857
												}
											}
										}
									}
								}
								JOINT mixamorig:LeftHandMiddle1
								{
									OFFSET 9.533394 0.000061 0.000044
									CHANNELS 6 Xposition Yposition Zposition Xrotation Yrotation Zrotation
									JOINT mixamorig:LeftHandMiddle2
									{
										OFFSET 3.699989 -0.000015 -0.000231
										CHANNELS 6 Xposition Yposition Zposition Xrotation Yrotation Zrotation
										JOINT mixamorig:LeftHandMiddle3
										{
											OFFSET 2.949997 -0.000015 -0.000059
											CHANNELS 6 Xposition Yposition Zposition Xrotation Yrotation Zrotation
											JOINT mixamorig:LeftHandMiddle4
											{
												OFFSET 2.952896 0.000031 0.000063
												CHANNELS 6 Xposition Yposition Zposition Xrotation Yrotation Zrotation
												End Site
												{
													OFFSET 295.289337 0.000000 0.022810
												}
											}
										}
									}
								}
								JOINT mixamorig:LeftHandRing1
								{
									OFFSET 9.104523 -0.042999 -1.865074
									CHANNELS 6 Xposition Yposition Zposition Xrotation Yrotation Zrotation
									JOINT mixamorig:LeftHandRing2
									{
										OFFSET 3.150009 -0.000031 0.000043
										CHANNELS 6 Xposition Yposition Zposition Xrotation Yrotation Zrotation
										JOINT mixamorig:LeftHandRing3
										{
											OFFSET 2.949982 -0.000015 0.000040
											CHANNELS 6 Xposition Yposition Zposition Xrotation Yrotation Zrotation
											JOINT mixamorig:LeftHandRing4
											{
												OFFSET 2.644348 0.000000 0.000057
												CHANNELS 6 Xposition Yposition Zposition Xrotation Yrotation Zrotation
												End Site
												{
													OFFSET 264.434631 0.000000 0.012105
												}
											}
										}
									}
								}
								JOINT mixamorig:LeftHandPinky1
								{
									OFFSET 8.077789 -0.486847 -3.806259
									CHANNELS 6 Xposition Yposition Zposition Xrotation Yrotation Zrotation
									JOINT mixamorig:LeftHandPinky2
									{
										OFFSET 3.599953 0.000031 0.014727
										CHANNELS 6 Xposition Yposition Zposition Xrotation Yrotation Zrotation
										JOINT mixamorig:LeftHandPinky3
										{
											OFFSET 2.100021 0.000015 0.007705
											CHANNELS 6 Xposition Yposition Zposition Xrotation Yrotation Zrotation
											JOINT mixamorig:LeftHandPinky4
											{
												OFFSET 2.125504 0.000031 0.007517
												CHANNELS 6 Xposition Yposition Zposition Xrotation Yrotation Zrotation
												End Site
												{
													OFFSET 212.550781 0.000000 0.625752
												}
											}
										}
									}
								}
							}
						}
					}
				}
			}
		}
	}
	JOINT mixamorig:RightUpLeg
	{
		OFFSET -8.207787 -6.751648 -1.599560
		CHANNELS 6 Xposition Yposition Zposition Xrotation Yrotation Zrotation
		JOINT mixamorig:RightLeg
		{
			OFFSET -0.000002 -44.370117 0.345942
			CHANNELS 6 Xposition Yposition Zposition Xrotation Yrotation Zrotation
			JOINT mixamorig:RightFoot
			{
				OFFSET 0.000003 -44.423679 -3.043532
				CHANNELS 6 Xposition Yposition Zposition Xrotation Yrotation Zrotation
				JOINT mixamorig:RightToeBase
				{
					OFFSET -0.000002 -8.728671 10.710558
					CHANNELS 6 Xposition Yposition Zposition Xrotation Yrotation Zrotation
					JOINT mixamorig:RightToe_End
					{
						OFFSET -0.000001 -0.000679 9.278119
						CHANNELS 6 Xposition Yposition Zposition Xrotation Yrotation Zrotation
						End Site
						{
							OFFSET 0.000000 -0.067690 927.812134
						}
					}
				}
			}
		}
	}
	JOINT mixamorig:LeftUpLeg
	{
		OFFSET 8.207793 -6.751686 -1.599556
		CHANNELS 6 Xposition Yposition Zposition Xrotation Yrotation Zrotation
		JOINT mixamorig:LeftLeg
		{
			OFFSET -0.000004 -44.370014 0.346954
			CHANNELS 6 Xposition Yposition Zposition Xrotation Yrotation Zrotation
			JOINT mixamorig:LeftFoot
			{
				OFFSET -0.000001 -44.423672 -3.044401
				CHANNELS 6 Xposition Yposition Zposition Xrotation Yrotation Zrotation
				JOINT mixamorig:LeftToeBase
				{
					OFFSET -0.000002 -8.728669 10.710558
					CHANNELS 6 Xposition Yposition Zposition Xrotation Yrotation Zrotation
					JOINT mixamorig:LeftToe_End
					{
						OFFSET -0.000003 -0.000679 9.278133
						CHANNELS 6 Xposition Yposition Zposition Xrotation Yrotation Zrotation
						End Site
						{
							OFFSET 0.000000 -0.068021 927.813477
						}
					}
				}
			}
		}
	}
}
MOTION
Frames: 3
Frame Time: 0.033333
0.000006 104.270477 1.554256 0.000010 0.000003 -0.000113 -0.000005 10.181587 0.131522 0.000001 -0.000003 0.000084 -0.000000 9.893967 -1.470711 0.000001 0.000000 -0.000000 -0.000000 9.220802 -1.370642 0.000000 -0.000000 -0.000000 0.000001 16.740433 -2.049030 0.000000 -0.000000 -0.000000 0.000000 9.617859 1.685014 0.000000 0.000000 0.000000 0.000002 22.037384 7.501101 0.000000 -0.000000 0.000000 -4.569968 11.014880 -2.160881 0.000008 0.000001 -0.000038 -10.592872 -0.524782 -2.231883 76.124924 35.212152 -27.909292 -27.841515 0.000001 0.000573 -48.251895 107.261598 62.612023 -28.328831 0.000009 0.000029 -0.000319 -0.000046 0.000008 -2.464547 -1.573623 2.682229 123.498645 9.719435 126.219874 -3.215283 -1.872589 1.924660 150.442170 29.516113 -8.128343 -2.654970 -1.527874 1.513073 139.670197 28.284542 -39.442273 -2.018834 -1.152002 1.108065 0.000001 -0.000002 0.000002 -9.108376 -0.517563 2.260047 84.677940 14.795469 -13.536008 -3.700068 0.000314 0.001421 79.329348 12.168716 -10.082469 -2.850081 0.000355 -0.000319 80.252872 9.963480 -8.403239 -2.772180 -0.000021 -0.000019 0.000000 0.000000 -0.000003 -9.532574 0.000279 0.000193 85.643899 12.561709 -11.775323 -3.700062 0.000306 0.003923 84.653692 10.023900 -9.049302 -2.950038 0.000337 -0.001850 86.794581 10.327117 -9.761123 -2.946616 0.000001 -0.000157 0.000006 -0.000001 -0.000000 -9.103689 -0.042749 -1.864910 85.319158 14.712552 -13.528048 -3.379311 0.000322 -0.000847 86.271395 7.809307 -7.334222 -2.889731 0.000351 0.000603 90.494146 5.822843 -5.918407 -2.638814 -0.000015 0.000939 0.000002 -0.000001 0.000002 -8.076747 -0.486404 -3.806090 77.005677 14.972540 -11.817012 -3.600028 0.000277 -0.003556 81.693461 6.513227 -5.333168 -2.100006 0.000316 -0.005523 84.543282 4.374185 -3.780689 -2.115785 -0.000068 -0.003679 0.000003 -0.000002 0.000001 4.570446 11.014691 -2.160851 -0.000018 0.000010 -0.000021 10.592442 -0.524467 -2.232396 75.031745 -26.354387 20.380950 27.841837 0.000055 -0.000191 -70.146849 -107.986869 -88.027246 28.328821 -0.000030 0.000017 0.000022 -0.000090 0.000001 2.465837 -1.575957 2.681837 124.778759 -13.856452 -123.234904 3.217847 -1.871826 1.916378 154.597971 -26.591361 26.587971 2.656094 -1.528654 1.514473 137.298017 -28.474657 49.370930 2.020891 -1.154071 1.115150 -0.000002 0.000004 0.000002 9.109363 -0.517911 2.259742 69.786679 -18.198155 12.737951 3.700050 0.000105 -0.000444 67.976549 -21.884153 14.865710 2.850048 0.000131 0.000221 66.063236 -17.422223 11.377435 2.774862 -0.000017 -0.000028 0.000001 -0.000001 0.000001 9.533450 0.000164 -0.000093 69.201708 -15.573014 10.771951 3.700035 0.000133 -0.000364 74.118829 -18.230581 13.815178 2.950073 0.000108 -0.000181 70.308212 -22.133764 15.687541 2.952878 -0.000027 0.000066 -0.000000 -0.000001 0.000001 9.104572 -0.042882 -1.865237 70.554051 -13.861744 9.831622 3.150041 0.000164 -0.000101 75.803304 -13.423734 10.471004 2.950038 0.000114 -0.000059 74.753688 -15.902299 12.181978 2.644332 0.000016 0.000060 0.000000 0.000002 0.000000 8.077826 -0.486749 -3.806418 68.114499 -14.879424 10.488135 3.599982 0.000158 0.014573 69.474232 -9.858753 7.188460 2.100027 0.000156 0.007557 71.629662 -10.923417 8.241568 2.125518 -0.000000 0.007518 -0.000001 0.000000 0.000000 -8.207786 -6.751667 -1.599560 -0.077001 -0.000003 0.000080 -0.000002 -44.370110 0.345938 0.153719 -0.000000 -0.000000 0.000000 -44.423679 -3.043532 -0.076700 0.000000 -0.000002 -0.000006 -8.728667 10.710559 -0.000009 -0.000000 -0.000000 -0.000001 -0.000679 9.278123 0.000000 -0.000000 -0.000000 8.207792 -6.751710 -1.599556 -0.074518 -0.000003 0.000081 -0.000002 -44.370014 0.346960 0.148822 0.000002 0.000000 -0.000001 -44.423664 -3.044403 -0.074314 0.000000 -0.000002 -0.000004 -8.728671 10.710558 0.000007 -0.000000 -0.000000 0.000000 -0.000680 9.278137 -0.000000 0.000000 -0.000001 
0.000006 104.270477 1.554256 0.000010 0.000003 -0.000113 -0.000005 10.181587 0.131522 0.000001 -0.000003 0.000084 -0.000000 9.893967 -1.470711 0.000001 0.000000 -0.000000 -0.000000 9.220802 -1.370642 0.000000 -0.000000 -0.000000 0.000001 16.740433 -2.049030 0.000000 -0.000000 -0.000000 0.000000 9.617859 1.685014 0.000000 0.000000 0.000000 0.000002 22.037384 7.501101 0.000000 -0.000000 0.000000 -4.569968 11.014880 -2.160881 0.000008 0.000001 -0.000038 -10.592863 -0.524791 -2.231863 76.534203 36.015799 -28.764245 -27.841499 -0.000009 0.000549 -45.675821 105.281492 57.765792 -28.328821 0.000020 0.000026 -0.000321 -0.000045 0.000010 -2.464506 -1.573631 2.682238 123.644579 3.459452 135.730407 -3.215281 -1.872631 1.924670 151.507543 29.228944 -10.466213 -2.654945 -1.527866 1.513070 139.233994 28.342285 -40.554894 -2.018823 -1.151980 1.108075 -0.000003 -0.000000 0.000007 -9.108374 -0.517548 2.260056 84.247405 15.615698 -14.179634 -3.700079 0.000307 0.001451 80.764357 14.417271 -12.259793 -2.850084 0.000349 -0.000313 79.889294 12.622830 -10.583024 -2.772168 -0.000004 -0.000018 0.000002 0.000000 -0.000001 -9.532578 0.000276 0.000180 83.458751 13.643732 -12.304860 -3.700053 0.000308 0.003931 84.098343 12.049877 -10.790364 -2.950051 0.000324 -0.001853 85.629624 12.254776 -11.353414 -2.946642 0.000003 -0.000154 0.000001 0.000000 0.000001 -9.103691 -0.042745 -1.864911 84.223076 15.846042 -14.300409 -3.379332 0.000323 -0.000853 85.406386 9.130457 -8.444852 -2.889753 0.000343 0.000614 91.434725 7.387854 -7.621635 -2.638794 -0.000015 0.000939 0.000001 0.000000 0.000000 -8.076760 -0.486397 -3.806086 73.659991 19.222553 -14.337855 -3.600030 0.000267 -0.003574 78.327387 7.881591 -6.134828 -2.099994 0.000316 -0.005537 81.802997 4.139069 -3.399828 -2.115788 -0.000034 -0.003681 -0.000002 0.000000 -0.000005 4.570446 11.014691 -2.160851 -0.000018 0.000010 -0.000021 10.592441 -0.524462 -2.232389 75.134150 -25.541964 19.779859 27.841839 0.000046 -0.000166 -68.646946 -106.151945 -84.513257 28.328823 -0.000016 0.000020 0.000020 -0.000088 0.000000 2.465858 -1.575873 2.681821 131.538051 -29.258307 -102.388395 3.217867 -1.871873 1.916403 157.549201 -24.146691 37.141834 2.656097 -1.528687 1.514508 132.523975 -30.109560 60.122884 2.020895 -1.154066 1.115154 0.000000 0.000006 0.000001 9.109364 -0.517905 2.259738 70.595333 -18.842357 13.390867 3.700042 0.000109 -0.000458 67.910993 -14.527078 9.822790 2.850050 0.000143 0.000204 66.187880 -11.195029 7.308778 2.774896 -0.000016 -0.000021 0.000001 0.000001 -0.000000 9.533452 0.000156 -0.000091 71.554312 -18.384347 13.296143 3.700047 0.000129 -0.000359 72.321629 -13.311423 9.746914 2.950056 0.000126 -0.000194 70.941726 -12.942093 9.243040 2.952880 -0.000030 0.000067 -0.000000 0.000000 0.000000 9.104568 -0.042884 -1.865228 72.648098 -16.894620 12.464144 3.150027 0.000169 -0.000096 75.832442 -10.626629 8.288178 2.950020 0.000158 -0.000075 76.314387 -9.292362 7.308608 2.644327 0.000029 0.000059 0.000000 0.000001 -0.000001 8.077835 -0.486757 -3.806385 69.756544 -18.716559 13.535036 3.599997 0.000149 0.014563 70.438375 -13.062967 9.606080 2.100012 0.000158 0.007535 71.844786 -9.498240 7.230991 2.125495 -0.000000 0.007515 -0.000000 0.000002 0.000000 -8.207786 -6.751667 -1.599560 -0.077001 -0.000003 0.000080 -0.000002 -44.370110 0.345938 0.153719 -0.000000 -0.000000 0.000000 -44.423679 -3.043532 -0.076700 0.000000 -0.000002 -0.000006 -8.728667 10.710559 -0.000009 -0.000000 -0.000000 -0.000001 -0.000679 9.278123 0.000000 -0.000000 -0.000000 8.207792 -6.751710 -1.599556 -0.074518 -0.000003 0.000081 -0.000002 -44.370014 0.346960 0.148822 0.000002 0.000000 -0.000001 -44.423664 -3.044403 -0.074314 0.000000 -0.000002 -0.000004 -8.728671 10.710558 0.000007 -0.000000 -0.000000 0.000000 -0.000680 9.278137 -0.000000 0.000000 -0.000001 
0.000006 104.270477 1.554256 0.000010 0.000003 -0.000113 -0.000005 10.181587 0.131522 0.000001 -0.000003 0.000084 -0.000000 9.893967 -1.470711 0.000001 0.000000 -0.000000 -0.000000 9.220802 -1.370642 0.000000 -0.000000 -0.000000 0.000001 16.740433 -2.049030 0.000000 -0.000000 -0.000000 0.000000 9.617859 1.685014 0.000000 0.000000 0.000000 0.000002 22.037384 7.501101 0.000000 -0.000000 0.000000 -4.569968 11.014880 -2.160881 0.000008 0.000001 -0.000038 -10.592863 -0.524794 -2.231854 76.552774 39.261030 -31.438917 -27.841513 0.000020 0.000546 -44.805532 104.564841 56.117049 -28.328815 0.000023 0.000028 -0.000321 -0.000042 0.000008 -2.464499 -1.573634 2.682252 124.107911 4.092294 136.986697 -3.215288 -1.872609 1.924673 151.154354 28.821493 -13.405226 -2.654948 -1.527862 1.513061 138.111097 28.629301 -38.887812 -2.018838 -1.151998 1.108057 -0.000003 -0.000002 0.000004 -9.108380 -0.517544 2.260040 84.838709 15.700499 -14.403624 -3.700068 0.000307 0.001430 81.408471 14.300773 -12.298429 -2.850093 0.000344 -0.000318 80.265993 12.237232 -10.327303 -2.772162 0.000001 -0.000020 -0.000001 0.000000 -0.000001 -9.532572 0.000294 0.000188 84.204819 13.565276 -12.394588 -3.700082 0.000322 0.003936 84.973065 12.034102 -10.941680 -2.950060 0.000330 -0.001859 86.100641 12.153100 -11.351645 -2.946625 -0.000014 -0.000154 0.000003 0.000000 0.000000 -9.103693 -0.042757 -1.864916 84.433330 15.321207 -13.875181 -3.379319 0.000306 -0.000840 85.888372 9.476954 -8.838974 -2.889771 0.000346 0.000596 91.396742 7.707429 -7.944183 -2.638820 -0.000029 0.000939 0.000003 -0.000001 -0.000002 -8.076750 -0.486392 -3.806080 74.737296 18.381195 -13.969166 -3.600036 0.000275 -0.003566 80.007600 8.133600 -6.531387 -2.100003 0.000319 -0.005525 83.283912 4.533263 -3.839078 -2.115770 -0.000055 -0.003681 0.000006 -0.000001 -0.000005 4.570446 11.014691 -2.160851 -0.000018 0.000010 -0.000021 10.592463 -0.524461 -2.232413 74.544842 -33.584136 25.868133 27.841837 0.000065 -0.000181 -66.926046 -104.607284 -81.080055 28.328810 -0.000028 0.000025 0.000021 -0.000089 -0.000000 2.465889 -1.575851 2.681819 134.451645 -32.637530 -95.050914 3.217870 -1.871862 1.916403 157.261117 -23.371302 41.216172 2.656104 -1.528711 1.514500 132.103645 -30.304559 61.386475 2.020898 -1.154083 1.115143 -0.000001 0.000003 0.000006 9.109378 -0.517904 2.259734 70.749005 -19.079614 13.599357 3.700027 0.000117 -0.000466 68.641263 -14.169156 9.711349 2.850050 0.000131 0.000204 66.859793 -10.860796 7.180773 2.774886 -0.000016 -0.000026 0.000000 -0.000001 0.000000 9.533462 0.000166 -0.000083 72.060251 -18.696424 13.648955 3.700044 0.000149 -0.000381 73.402329 -13.194435 9.852542 2.950047 0.000127 -0.000206 72.095345 -12.959806 9.453449 2.952879 -0.000015 0.000064 0.000001 -0.000002 0.000001 9.104581 -0.042884 -1.865211 73.566335 -17.390959 13.047719 3.150032 0.000188 -0.000096 76.715271 -11.360147 9.002724 2.950034 0.000142 -0.000084 76.859641 -9.802074 7.785739 2.644323 0.000033 0.000054 0.000001 0.000000 0.000001 8.077839 -0.486756 -3.806391 70.119419 -19.260840 14.015273 3.600000 0.000143 0.014569 71.290776 -14.453939 10.768270 2.100029 0.000139 0.007562 72.384036 -10.711538 8.199155 2.125502 -0.000015 0.007509 -0.000000 0.000001 0.000000 -8.207786 -6.751667 -1.599560 -0.077001 -0.000003 0.000080 -0.000002 -44.370110 0.345938 0.153719 -0.000000 -0.000000 0.000000 -44.423679 -3.043532 -0.076700 0.000000 -0.000002 -0.000006 -8.728667 10.710559 -0.000009 -0.000000 -0.000000 -0.000001 -0.000679 9.278123 0.000000 -0.000000 -0.000000 8.207792 -6.751710 -1.599556 -0.074518 -0.000003 0.000081 -0.000002 -44.370014 0.346960 0.148822 0.000002 0.000000 -0.000001 -44.423664 -3.044403 -0.074314 0.000000 -0.000002 -0.000004 -8.728671 10.710558 0.000007 -0.000000 -0.000000 0.000000 -0.000680 9.278137 -0.000000 0.000000 -0.000001 
